<?xml version="1.0" encoding="UTF-8"?>
<svg width="304px" height="90px" viewBox="0 0 304 90" version="1.1" xmlns="http://www.w3.org/2000/svg" xmlns:xlink="http://www.w3.org/1999/xlink">
    <!-- Generator: Sketch 52.5 (67469) - http://www.bohemiancoding.com/sketch -->
    <title>ellingsen-group</title>
    <desc>Created with Sketch.</desc>
    <defs>
        <linearGradient x1="-3.78061571%" y1="50.0182805%" x2="83.1973309%" y2="50.0182805%" id="linearGradient-1">
            <stop stop-color="#00316D" offset="0%"></stop>
            <stop stop-color="#365B87" offset="100%"></stop>
        </linearGradient>
    </defs>
    <g id="ellingsen-group" stroke="none" stroke-width="1" fill="none" fill-rule="evenodd">
        <g id="ellingsen-group-copy" transform="translate(0.000000, 25.000000)">
            <g id="Group-2">
                <polygon id="Path" fill="#58BA5D" points="34.5225366 14.7259259 26.0105366 20.3111111 34.5225366 25.8814815"></polygon>
                <path d="M75.6292683,1.82222222 L58.753561,1.82222222 C56.5921294,1.8056059 54.8198827,3.52988032 54.7793171,5.68888889 L54.7793171,30.1777778 C54.8116882,33.1191081 56.2432785,35.8694832 58.6349268,37.5851852 C60.1479574,38.6992694 61.9752781,39.3060539 63.8548293,39.3185185 L75.7182439,39.3185185 C76.0806419,39.3139218 76.4288087,39.1768989 76.6969756,38.9333333 L76.6969756,34.1925926 C76.4266318,33.9544034 76.0787025,33.8227404 75.7182439,33.8222222 L63.8548293,33.8222222 C61.7741196,33.7821448 60.1038787,32.0938237 60.0881951,30.0148148 L60.0881951,23.1555556 L70.4686829,23.1555556 C71.2876808,23.1555556 71.9516098,22.4922737 71.9516098,21.6740741 L71.9516098,19.0518519 C71.9044826,18.2685572 71.2541555,17.6578456 70.4686829,17.6592593 L60.0881951,17.6592593 L60.0881951,7.28888889 L75.6292683,7.28888889 C76.4040882,7.29136957 77.0502132,6.69751398 77.1121951,5.92592593 L77.1121951,3.22962963 C77.072651,2.44049356 76.4201628,1.82123398 75.6292683,1.82222222 Z" id="Path" fill="#00316D"></path>
                <path d="M128.643902,33.7925926 L116.988098,33.7925926 L116.988098,3.74814815 L116.988098,3.27407407 C116.988098,2.45587444 116.324169,1.79259259 115.505171,1.79259259 L112.835902,1.79259259 C112.051844,1.83967382 111.440536,2.48936703 111.441951,3.27407407 L111.441951,35.5555556 C111.442475,36.5264499 111.826113,37.4579944 112.509659,38.1481481 C113.243705,38.9218805 114.260213,39.3655009 115.32722,39.3777778 L128.673561,39.3777778 C129.459034,39.3791914 130.109361,38.7684798 130.156488,37.9851852 L130.156488,35.2 C130.116543,34.3992657 129.446232,33.7755643 128.643902,33.7925926 Z" id="Path" fill="#00316D"></path>
                <path d="M141.767805,1.82222222 L139.068878,1.82222222 C138.24988,1.82222222 137.585951,2.48550407 137.585951,3.3037037 L137.585951,37.8222222 C137.585951,38.6404219 138.24988,39.3037037 139.068878,39.3037037 L141.767805,39.3037037 C142.551864,39.2566225 143.163171,38.6069293 143.161756,37.8222222 L143.161756,3.27407407 C143.14766,2.50081913 142.540556,1.868497 141.767805,1.82222222 Z" id="Path" fill="#00316D"></path>
                <path d="M103.063415,33.7925926 L91.3482927,33.7925926 L91.3482927,3.27407407 C91.3497077,2.48936703 90.7384003,1.83967382 89.9543415,1.79259259 L87.2554146,1.79259259 C86.4364168,1.79259259 85.7724878,2.45587444 85.7724878,3.27407407 L85.7724878,35.5555556 C85.8012707,37.4718347 87.2358542,39.0754868 89.1387317,39.3185185 C89.3163841,39.3330884 89.494933,39.3330884 89.6725854,39.3185185 L103.018927,39.3185185 C103.804399,39.3199322 104.454727,38.7092206 104.501854,37.9259259 L104.501854,35.2 C104.463476,34.4277394 103.83706,33.8148378 103.063415,33.7925926 Z" id="Path" fill="#00316D"></path>
                <path d="M177.447024,1.82222222 L174.748098,1.82222222 C173.964039,1.86930345 173.352731,2.51899666 173.354146,3.3037037 L173.354146,29.9703704 L172.019512,27.3333333 L159.266341,3.08148148 C159.09169,2.67662668 158.796584,2.33525782 158.421073,2.1037037 C157.908544,1.87806294 157.348451,1.78141394 156.789854,1.82222222 L154.090927,1.82222222 C153.58357,1.81827782 153.095426,2.01585329 152.733889,2.3714811 C152.372352,2.72710892 152.16704,3.21165555 152.163122,3.71851852 L152.163122,37.7925926 C152.161707,38.5772996 152.773014,39.2269928 153.557073,39.2740741 L156.256,39.2740741 C157.040059,39.2269928 157.651366,38.5772996 157.649951,37.7925926 L157.649951,11.1259259 L171.129756,36.6814815 L171.900878,38.162963 C172.307299,38.8644738 173.078751,39.27283 173.888,39.2148148 L176.972488,39.2148148 C178.03961,39.2148459 178.906976,38.3549404 178.915122,37.2888889 L178.915122,3.21481481 C178.868362,2.43720321 178.226772,1.82861044 177.447024,1.82222222 Z" id="Path" fill="#00316D"></path>
                <path d="M209.270634,21.9111111 L206.616195,21.9111111 C206.217888,21.9119664 205.839401,22.0848201 205.578146,22.3851852 C205.343146,22.6736617 205.217164,23.0355059 205.222244,23.4074074 L205.222244,34.3851852 C204.510439,34.3851852 203.576195,34.5185185 202.419512,34.562963 L202.300878,34.562963 C201.485268,34.562963 200.595512,34.637037 199.542634,34.637037 C198.855083,34.6311747 198.171558,34.5314873 197.511024,34.3407407 C196.181164,34.0161226 194.990773,33.2735024 194.115122,32.2222222 C192.721171,30.5333333 191.816585,27.7777778 191.816585,23.8666667 L191.816585,17.3037037 C191.816585,12.962963 192.824976,10.2814815 194.307902,8.6962963 C195.804711,7.19757823 197.871899,6.41033205 199.987512,6.53333333 C204.154537,6.53333333 206.393756,6.62222222 209.270634,6.87407407 L209.507902,6.87407407 C209.792546,6.89499513 210.07562,6.81644011 210.308683,6.65185185 C210.550506,6.46543352 210.68387,6.1712074 210.664585,5.86666667 L210.664585,3.42222222 C210.677936,3.04962788 210.505798,2.6945918 210.204878,2.47407407 C209.959719,2.3002464 209.673557,2.19304004 209.374439,2.16296296 C206.268739,1.6853955 203.129695,1.45750403 199.987512,1.48148148 C196.582584,1.36339024 193.261359,2.55065734 190.70439,4.8 C188.07961,7.24444444 186.25561,11.2444444 186.25561,17.3037037 L186.25561,23.8666667 C186.25561,24.6814815 186.25561,25.4518519 186.359415,26.1925926 C186.494144,27.8221477 186.827807,29.4291326 187.352976,30.9777778 C187.992044,32.8898864 189.056787,34.6323374 190.467122,36.0740741 C192.36328,37.9373114 194.814964,39.1333575 197.451707,39.4814815 C198.12422,39.5818165 198.803349,39.6313397 199.483317,39.6296296 C200.476878,39.6296296 201.351805,39.6296296 202.197073,39.6296296 C203.042341,39.6296296 204.065561,39.5407407 204.881171,39.4814815 C206.601366,39.3481481 208.010146,39.1407407 209.329951,38.9333333 C209.449152,38.91191 209.564245,38.8719166 209.671024,38.8148148 C210.269129,38.5689117 210.652797,37.9792298 210.634927,37.3333333 L210.634927,23.4074074 C210.645229,22.627661 210.048713,21.9734283 209.270634,21.9111111 Z" id="Path" fill="#00316D"></path>
                <path d="M231.722146,18.8592593 L227.273366,16.162963 C225.81771,15.3886864 224.463001,14.4383291 223.239805,13.3333333 C222.512571,12.6558974 222.103631,11.7044264 222.11278,10.7111111 C221.943681,9.43915859 222.520391,8.18315757 223.595707,7.48148148 C225.236954,6.72803897 227.045401,6.41161393 228.845268,6.56296296 C231.662829,6.56296296 235.10322,6.71111111 237.238634,6.85925926 L237.372098,6.85925926 C237.720407,6.87094913 238.059988,6.74903093 238.321171,6.51851852 C238.589917,6.27081712 238.740831,5.92082294 238.73639,5.55555556 L238.73639,3.42222222 C238.681723,2.73443576 238.159039,2.17540183 237.475902,2.07407407 C234.604687,1.69278046 231.71205,1.49484772 228.81561,1.48148148 C225.668989,1.2782039 222.536146,2.0490117 219.843902,3.68888889 C217.6142,5.30158268 216.357384,7.93553345 216.507317,10.6814815 C216.507317,14.8444444 218.983805,17.5407407 223.53639,20.2962963 L228.296585,23.2592593 C229.912366,24.1696896 231.407036,25.2796449 232.745366,26.562963 C233.503373,27.3053782 233.912615,28.3328658 233.87239,29.3925926 C234.008764,30.7942792 233.514286,32.1839816 232.522927,33.1851852 C231.544195,34.0740741 229.824,34.6666667 226.932293,34.6666667 C225.226927,34.6666667 222.765268,34.6666667 220.704,34.5037037 L218.88,34.3851852 L218.68722,34.3851852 C218.357987,34.3764091 218.036689,34.4869118 217.782634,34.6962963 C217.493941,34.938224 217.330383,35.2977021 217.337756,35.6740741 L217.337756,37.6444444 C217.307496,37.9872112 217.414105,38.3280298 217.634341,38.5925926 C217.935293,38.8481045 218.30853,39.0034683 218.702049,39.037037 L220.704,39.3185185 C222.769222,39.5866032 224.84971,39.7202185 226.932293,39.7185185 C231.84078,39.7185185 235.029073,38.4148148 236.971707,36.4296296 C238.736296,34.5263204 239.670053,31.999638 239.566829,29.4074074 C239.700293,25.1851852 237.446244,22.2222222 231.722146,18.8592593 Z" id="Path" fill="#00316D"></path>
                <path d="M267.000976,1.82222222 L250.08078,1.82222222 C247.939167,1.83005243 246.198166,3.54959175 246.165854,5.68888889 L246.165854,30.1777778 C246.229204,35.1660157 250.248631,39.2012085 255.241366,39.2888889 L267.10478,39.2888889 C267.890253,39.2903026 268.54058,38.6795909 268.587707,37.8962963 L268.587707,35.2 C268.587707,34.3818004 267.923778,33.7185185 267.10478,33.7185185 L255.241366,33.7185185 C253.160656,33.6784411 251.490415,31.99012 251.474732,29.9111111 L251.474732,23.1555556 L261.781073,23.1555556 C262.600071,23.1555556 263.264,22.4922737 263.264,21.6740741 L263.264,19.0518519 C263.216873,18.2685572 262.566546,17.6578456 261.781073,17.6592593 L251.474732,17.6592593 L251.474732,7.28888889 L267.045463,7.28888889 C267.774344,7.23263163 268.353444,6.65409594 268.409756,5.92592593 L268.409756,3.22962963 C268.372516,2.46828268 267.763065,1.85942652 267.000976,1.82222222 Z" id="Path" fill="#00316D"></path>
                <path d="M301.849756,1.79259259 L299.136,1.79259259 C298.351941,1.83967382 297.740634,2.48936703 297.742049,3.27407407 L297.742049,29.9407407 L283.594927,3.05185185 C283.425441,2.63994474 283.129479,2.29239898 282.749659,2.05925926 C282.240891,1.83933416 281.6858,1.74775708 281.133268,1.79259259 L278.434341,1.79259259 C277.92582,1.78066803 277.433786,1.97314383 277.068576,2.32685747 C276.703365,2.68057112 276.495541,3.16592323 276.491707,3.67407407 L276.491707,37.7481481 C276.490292,38.5328552 277.1016,39.1825484 277.885659,39.2296296 L280.584585,39.2296296 C281.374491,39.190124 281.994355,38.5382718 281.993366,37.7481481 L281.993366,11.0814815 L296.229463,38.1185185 C296.638419,38.817395 297.408095,39.2248111 298.216585,39.1703704 L301.301073,39.1703704 C302.37396,39.1703704 303.243707,38.3014711 303.243707,37.2296296 L303.243707,3.15555556 C303.185579,2.41692501 302.590186,1.8347679 301.849756,1.79259259 Z" id="Path" fill="#00316D"></path>
                <path d="M35.1750244,38.2962963 C33.6221789,37.8959647 32.1270784,37.2985074 30.7262439,36.5185185 C30.3555122,36.3111111 29.9996098,36.1037037 29.6437073,35.8666667 C27.3159939,34.3391916 25.3560323,32.315366 23.9047805,29.9407407 C22.1320286,27.0299334 21.193321,23.6887267 21.1910244,20.2814815 C21.1910244,20.0444444 21.1910244,19.7925926 21.1910244,19.5555556 C21.4410162,12.7241359 25.4290845,6.5828049 31.5715122,3.57037037 C26.6953542,5.010871 22.1330385,7.35262071 18.1213659,10.4740741 C17.2316098,11.2148148 16.3863415,11.9851852 15.585561,12.7851852 C14.6086883,13.7958649 13.6878976,14.8591824 12.8273171,15.9703704 C11.9548261,17.0232655 11.138099,18.1210637 10.3804878,19.2592593 C9.78731707,20.1925926 9.23863415,21.1407407 8.71960976,22.1185185 C8.36370732,22.8 8.02263415,23.4814815 7.71121951,24.1777778 C6.8171757,25.9275704 6.1684857,27.7919827 5.78341463,29.7185185 C5.69496295,30.0241493 5.63050732,30.3362067 5.59063415,30.6518519 C5.57539578,30.9380693 5.57539578,31.2248936 5.59063415,31.5111111 C5.52078238,33.2731957 6.1373759,34.9937266 7.31082927,36.3111111 C9.10961896,37.9632242 11.519756,38.7855268 13.9543415,38.5777778 L35.872,38.5777778 L35.872,38.5185185 C35.5902439,38.4296296 35.4122927,38.3555556 35.1750244,38.2962963 Z" id="Path" fill="url(#linearGradient-1)"></path>
                <path d="M28.1756098,1.99987804 L3.88526829,2 C1.77297039,1.98337789 0.0405568456,3.66786218 0,5.77777778 L0,29.1555556 C4.82479385,16.3303329 15.1730076,6.35676018 28.1756098,1.99987804 Z" id="Path" fill="#58BA5D"></path>
            </g>
        </g>
    </g>
</svg>